<?xml version="1.0" encoding="utf-8"?>
<!-- Generator: Adobe Illustrator 15.0.0, SVG Export Plug-In . SVG Version: 6.00 Build 0)  -->
<!DOCTYPE svg PUBLIC "-//W3C//DTD SVG 1.1//EN" "http://www.w3.org/Graphics/SVG/1.1/DTD/svg11.dtd">
<svg version="1.1" id="Layer_1" xmlns="http://www.w3.org/2000/svg" xmlns:xlink="http://www.w3.org/1999/xlink" x="0px" y="0px"
	 width="1024px" height="35px" viewBox="0 0 1024 35" enable-background="new 0 0 1024 35" xml:space="preserve">
<g id="primeMinister">

		<image overflow="visible" enable-background="new    " width="31" height="31" id="2523-primeMinister" xlink:href="../asset/prime_minister01.png"  transform="matrix(1 0 0 1 156.1055 2.1641)">
	</image>

		<image overflow="visible" enable-background="new    " width="31" height="31" id="2531-primeMinister" xlink:href="../asset/prime_minister02.png"  transform="matrix(1 0 0 1 323.0576 2.1641)">
	</image>

		<image overflow="visible" enable-background="new    " width="31" height="31" id="2534-primeMinister" xlink:href="../asset/prime_minister03.png"  transform="matrix(1 0 0 1 372.0566 2.1641)">
	</image>

		<image overflow="visible" enable-background="new    " width="31" height="31" id="2535-primeMinister" xlink:href="../asset/prime_minister04.png"  transform="matrix(1 0 0 1 419.0547 2.1641)">
	</image>

		<image overflow="visible" enable-background="new    " width="31" height="31" id="2538-primeMinister" xlink:href="../asset/prime_minister05.png"  transform="matrix(1 0 0 1 470.3887 2.1641)">
	</image>

		<image overflow="visible" enable-background="new    " width="31" height="31" id="2539-primeMinister" xlink:href="../asset/prime_minister06.png"  transform="matrix(1 0 0 1 493.0576 2.1641)">
	</image>

		<image overflow="visible" enable-background="new    " width="31" height="31" id="2540-primeMinister" xlink:href="../asset/prime_minister04.png"  transform="matrix(1 0 0 1 540.1484 2.1641)">
	</image>

		<image overflow="visible" enable-background="new    " width="31" height="31" id="2544-primeMinister" xlink:href="../asset/prime_minister07.png"  transform="matrix(1 0 0 1 661.0703 2.1641)">
	</image>

		<image overflow="visible" enable-background="new    " width="31" height="31" id="2549-primeMinister" xlink:href="../asset/prime_minister08.png"  transform="matrix(1 0 0 1 743.0723 2.1641)">
	</image>

		<image overflow="visible" enable-background="new    " width="31" height="31" id="2551-primeMinister" xlink:href="../asset/prime_minister09.png"  transform="matrix(1 0 0 1 790.4053 2.1641)">
	</image>

		<image overflow="visible" enable-background="new    " width="31" height="31" id="2554-primeMinister" xlink:href="../asset/prime_minister10.png"  transform="matrix(1 0 0 1 838.0732 2.1641)">
	</image>
</g>
</svg>
